<?xml version="1.0" encoding="UTF-8"?>
<svg version="1.1" viewBox="0 0 1600 896" width="1280" height="1280" xmlns="http://www.w3.org/2000/svg">
<path transform="translate(861,74)" d="m0 0c3.24 2.06 6.26 4.31 9 7v2h2c1.88 2.23 1.88 2.23 4 5.19 0.7 0.96 1.4 1.92 2.12 2.92 3.66 5.64 4.22 10.2 4.44 16.8 0.06 1.56 0.13 3.11 0.19 4.67 0.04 0.75 0.07 1.5 0.1 2.28 0.14 2.46 0.14 2.46 0.79 6.04 0.36 3.13 0.36 3.13-1.52 6.32-5.65 5.87-14.7 7.74-22.3 9.87-5.56 1.57-10.7 3.13-15.8 5.94 3.53 3.67 7.24 6.87 11.3 9.94 0.58 0.43 1.15 0.87 1.74 1.32 2.42 1.85 4.85 3.67 7.33 5.44 7.37 5.26 12.1 10.5 15.4 19 8.75 21.7 29.2 34.8 49.2 45.3 10.7 5.67 20 11.2 28.3 20.1 2.7 2.85 5.51 5.24 8.59 7.67 7.04 5.63 13.3 11.5 14.6 20.8-0.49 10-6.92 18.9-12 27.2-4.47 7.51-6.43 14.6-7.53 23.2l-1 1c8.18 0.45 14.8-1.71 22.4-4.75 3.58-1.24 4.27-1.34 7.62-0.25-0.75 4.75-0.75 4.75-3 7-2.16 0.34-4.33 0.6-6.5 0.81-6.46 0.87-12.4 1.95-17.5 6.19-1.22 3.02-1.65 4.87-2 8-1.62 8.44-4.43 15.4-8.48 22.9-1.38 2.84-2.32 4.99-2.52 8.13 1.62 1.71 3.29 3.37 5 5 3.1 10.4 1.34 22.9-2 33-0.32 1.01-0.63 2.02-0.96 3.07-3.99 11.5-11 24.5-20 32.9-2.05 0.99-3.98 1.69-6.17 2.3-2.17 0.83-3.21 2.07-4.83 3.7-2.19-0.31-2.19-0.31-4-1-0.66-1.76-0.66-1.76-1-4 0.98-1.92 0.98-1.92 2.54-3.91 0.83-1.1 0.83-1.1 1.69-2.23 0.61-0.78 1.21-1.56 1.83-2.36 5.19-6.92 9.55-13.5 12.9-21.5 0.31-0.69 0.62-1.38 0.95-2.09 4.75-11.3 6.6-27.3 2.05-38.9-1.31-1.35-2.64-2.69-4-4 0.34-4.85 2.78-9.08 4.88-13.4 5.19-9.71 5.19-9.71 7.62-20.2 0.3-3.9 1.49-6.03 3.5-9.38-0.65-2.22-0.65-2.22-2-4-2.44-4.88-1.3-10.9 0.31-15.9 2.55-6.52 6.21-12.5 9.8-18.5 4.84-8.07 7.05-14.1 5.89-23.6-3.3-9.62-13.9-16.4-21.8-22.1-1.93-1.67-3.16-3.15-4.69-5.15-4.3-5.13-10.1-7.89-15.9-11.1-1.76-0.99-3.51-1.98-5.27-2.98-1.73-0.97-3.45-1.94-5.18-2.91-10.3-5.83-20.3-12-29.2-19.8-0.68-0.59-1.36-1.18-2.07-1.78-7.93-7.33-13.5-16.8-17.9-26.6-4.88-9.96-14.2-15.3-23.1-21.4-7.58-5.21-7.58-5.21-9.94-8.21v-4c5.91-3.31 11.7-5.14 18.2-6.94 3.83-1.08 7.6-2.24 11.4-3.5 1.13-0.37 2.26-0.74 3.42-1.12 3.44-1.67 5.01-3.15 6.96-6.44 0.05-2.26 0.05-2.26-0.75-4.5-1.1-4.18-1.22-7.57-0.94-11.9 0.12-8.95-4-15.1-10-21.5-1.76-1.72-3.55-3.42-5.37-5.07-1.94-2.06-1.94-2.06-1.94-5.06 3.84-2.61 6.62-2.22 11-1z" fill="#000002"/>
<path transform="translate(809,549)" d="m0 0c1.71 0.43 3.42 0.87 5.12 1.31 0.96 0.25 1.91 0.49 2.89 0.74 8.3 2.64 11 6.43 15 13.9 8.75 17.5 13.8 37.7 8.13 57-4.1 10.7-9.83 20.5-16.2 30.1-0.92 1.42-1.83 2.85-2.74 4.28-0.98 1.53-1.97 3.06-2.95 4.6-0.46 0.72-0.93 1.45-1.4 2.2-2.45 3.8-4.88 7.55-7.91 10.9h-2v-2c-4 2.07-5.81 3.83-7.88 7.81-3.12 5.5-6.67 10.1-12.9 12.1-2.62 1.01-2.62 1.01-3.75 4.43-0.51 1.56-1.01 3.13-1.5 4.69-3.9 11-8.5 22.2-15 32h-4c1.7-8.1 1.7-8.1 2.69-11.1 2.38-7.17 3.1-14.2 3.75-21.7 0.84-8.71 1.75-16.9 4.54-25.2 1.16-3.48 1.94-6.99 2.77-10.6 1.6-6.16 4.01-10.9 7.31-16.2 10.6-17.6 8.4-39.6 6.94-59.3 5.32 4.48 6.61 8.77 7.23 15.4 0.79 14-0.08 28-7.4 40.4-2.08 3.03-2.08 3.03-1.83 6.21l2 1c-0.64 4.92-2.73 8.97-4.88 13.4-4.93 8.96-4.93 8.96-7.12 18.6l2 1 1 3c7.71-3.26 11.3-8.53 14.9-15.7 0.86-1.61 1.73-3.22 2.6-4.83 0.42-0.77 0.84-1.54 1.27-2.33 6.27-11.3 6.27-11.3 10.6-13.3 4.14-3.06 5.1-7.51 6.75-12.3 0.34-0.94 0.68-1.89 1.03-2.86 0.64-1.77 1.28-3.54 1.9-5.31 0.61-1.7 1.26-3.39 1.94-5.07 3.85-9.72 4.57-20 3.94-30.4-0.06-1.04-0.12-2.07-0.18-3.14-1.4-13.5-8.35-26.2-15.6-37.5-1.25-2.38-1.25-2.38-1.25-6.38z" fill="#000002"/>
<path transform="translate(746,647)" d="m0 0 2 1c0.76 2.65 1.41 5.25 2 7.94 0.17 0.77 0.35 1.55 0.53 2.35 0.5 2.23 0.99 4.47 1.47 6.71 0.22 0.99 0.44 1.98 0.67 3 2.48 11.6 2.45 23.1 2.33 35-0.58 0.18-1.16 0.36-1.76 0.55-3.28 2.13-4.45 5.2-6.05 8.64-0.35 0.72-0.69 1.43-1.05 2.17-0.71 1.49-1.42 2.99-2.12 4.48-0.92 1.96-1.86 3.91-2.81 5.85-6.36 13.2-11.9 26.9-16.3 40.9-1.24 3.44-2.92 6.35-4.88 9.43h-2c-0.25-10.6-0.08-20.1 4-30v-4c-0.99-0.33-1.98-0.66-3-1 1.27-4.05 2.77-7.77 4.68-11.6 7.72-15.6 13.1-28.6 14.5-46 0.62-7.32 1.86-14.4 3.36-21.6 0.21-1.04 0.43-2.08 0.65-3.15 1.58-7.33 1.58-7.33 3.85-10.7z" fill="#000002"/>
<path transform="translate(685,751)" d="m0 0 2 1c0.45 2.25 0.45 2.25 0.69 5 0.08 0.91 0.17 1.82 0.26 2.75 0.02 0.74 0.03 1.49 0.05 2.25l-1 1c-0.37 2.33-0.7 4.66-1 7h-2v-6h-2c-0.19 0.9-0.19 0.9-0.38 1.81-2.05 8.66-5.76 16.4-9.68 24.3-0.86 1.75-1.71 3.5-2.55 5.26-1.46 2.77-3.07 4.56-5.39 6.64-1.49-0.5-1.49-0.5-3-1v-4c-5.91 5.58-9.4 10.8-11.2 18.8-0.17 0.71-0.34 1.42-0.51 2.16-2.23 10-0.98 18.7 0.78 28.8 0.36 2.1 0.68 4.21 0.98 6.33l-1 1c-0.23 1.35-0.41 2.7-0.56 4.06-0.22 1.95-0.22 1.95-0.44 3.94-2.48 0.5-2.48 0.5-5 1l1 9c-2.67-0.59-4.47-1.28-6.12-3.53-5.47-10.4-6.36-20.9-6.26-32.4-0.01-1.28-0.02-2.56-0.03-3.88 0.04-14.4 3.04-28.5 13.4-39.2h2v5c5.65-1.37 8.73-5.48 12-10 1.57-2.84 3.05-5.72 4.52-8.61 1.48-2.39 1.48-2.39 4.67-4.33 4.09-3 4.04-6.45 5.03-11.3 0.78-2.8 0.78-2.8 3.28-5.55 2.5-1.25 2.5-1.25 5.5-1.25 0.14-0.8 0.29-1.61 0.44-2.44 0.56-2.56 0.56-2.56 1.56-3.56z" fill="#000002"/>
<path transform="translate(850,468)" d="m0 0h2c2.7 10.6 4.02 18.4 1 29l5 1c-3.27 15.6-11.4 28.3-23.8 38.2-2.31 1.6-2.31 1.6-3.23 3.79 0.78 0.21 1.57 0.41 2.38 0.62 5.26 2 12 4.56 14.9 9.58 0.23 0.59 0.46 1.19 0.7 1.8-2.67 2.67-4.16 2.36-7.88 2.44-5.77-0.1-5.77-0.1-8.37-2.63-0.58-0.93-1.15-1.85-1.75-2.81-3.57-2.67-7.39-4.72-11.4-6.56-2.56-1.44-2.56-1.44-3.22-3.53-0.11-0.63-0.22-1.26-0.34-1.91 0.83-0.63 1.67-1.26 2.53-1.91 18.8-14.8 26.6-35.9 29.6-59.3 0.15-1.27 0.3-2.54 0.45-3.85 0.43-2.96 0.43-2.96 1.43-3.96z" fill="#000002"/>
<path transform="translate(868 429)" d="m0 0c5.18 0.49 8.19 1.74 11.9 5.38 3.54 4.97 7.67 10.9 7.31 17.2-1.77 5.07-4.47 9.92-8.31 13.8 0.02 1.87 0.05 3.75 0.11 5.62 0.3 9.52-0.39 16.8-6.61 24.4-2.4 1.86-3.63 2.35-6.5 2.94 0.15-0.67 0.31-1.34 0.47-2.02 2.09-9.9 1.75-17.8-2.47-27-0.56-2.5-0.56-2.5 0-5 1.42-1.85 2.96-3.54 4.53-5.27 3.93-4.65 3.9-10.3 3.79-16.1-0.68-5.54-4.4-8.98-8.32-12.6 1-1 1-1 4.06-1.38z" fill="#000002"/>
<path transform="translate(712,728)" d="m0 0h1c0.3 7.55-0.57 14.6-2 22 0.99-0.33 1.98-0.66 3-1l-1 11-2-4-2 1c-0.46 2.01-0.84 4.03-1.19 6.06-1.25 5.87-2.94 8.83-7.12 13-1.9 2.19-2.67 4.05-3.63 6.76-2.53 7.11-7.3 14.2-13.1 19.2h-2c0.51-5.94 2.37-10.4 4.94-15.8 5.52-12 6.44-23.2 7.06-36.2h4c0.34 1.46 0.67 2.92 1 4.38 0.19 0.81 0.37 1.62 0.56 2.46 0.44 2.16 0.44 2.16 0.44 4.16h2c0.23-1.05 0.46-2.11 0.7-3.19 5.93-26.4 5.93-26.4 9.3-29.8z" fill="#000002"/>
<path transform="translate(817,44)" d="m0 0c10.3 3.6 18 12.3 22.7 21.9 2.4 5.38 2.4 5.38 2.02 8.44-0.71 1.68-0.71 1.68-1.71 2.68-4.51 0.13-8.03-0.32-11.8-2.94-1.92-2.61-3.15-4.84-4.5-7.75-4.38-9.21-11.1-15.3-19.8-20.3v-2c3.98-1.99 8.76-0.8 13 0z" fill="#000002"/>
<path transform="translate(962,352)" d="m0 0c10.6-0.39 19.7 1.7 28.1 8.5 0.64 0.82 1.28 1.65 1.94 2.5-0.38 2.16-0.38 2.16-1 4-1.09-0.52-2.18-1.04-3.3-1.57-8.48-4.04-17-7.93-25.7-11.4v-2z" fill="#000002"/>
<path transform="translate(624,832)" d="m0 0c0.99 0.33 1.98 0.66 3 1 1.62 3.76 2.24 6.92 2 11-1.94-0.81-1.94-0.81-4-2-1.16-3.47-1.07-6.36-1-10z" fill="#000002"/>
<path transform="translate(801,639)" d="m0 0c0.75 1.62 0.75 1.62 1 4-1.94 3.25-1.94 3.25-4 6l-2-1c0.64-1.31 1.29-2.63 1.94-3.94 0.36-0.73 0.72-1.46 1.09-2.21 0.97-1.85 0.97-1.85 1.97-2.85z" fill="#000002"/>
<path transform="translate(223,589)" d="m0 0c0.99 0.33 1.98 0.66 3 1l-1 3-2-1v-3z" fill="#000002"/>
</svg>
