<svg version="1.1" id="Layer_1" xmlns="http://www.w3.org/2000/svg" xmlns:xlink="http://www.w3.org/1999/xlink" x="0px" y="0px"
	 width="100%" viewBox="0 0 1920 1080" enable-background="new 0 0 1920 1080" xml:space="preserve">
<path fill="#000000" opacity="1.000000" stroke="none" 
	d="
M1102.000000,1081.000000 
	C736.166748,1081.000000 370.833466,1080.993286 5.500221,1081.093018 
	C1.751669,1081.093994 0.905862,1080.249878 0.906912,1076.500244 
	C1.006865,719.500305 1.006887,362.500336 0.907020,5.500415 
	C0.905971,1.752262 1.749640,0.906623 5.499623,0.907192 
	C642.499512,1.003863 1279.499390,1.003851 1916.499268,0.907396 
	C1920.246460,0.906829 1921.094238,1.748362 1921.093140,5.499292 
	C1920.993164,362.499176 1920.993042,719.499084 1921.092773,1076.499023 
	C1921.093750,1080.245605 1920.252563,1081.094727 1916.500977,1081.093384 
	C1645.167358,1080.990845 1373.833618,1081.000000 1102.000000,1081.000000 
z"/>
<path fill="#5C0DDC" opacity="1.000000" stroke="none" 
	d="
M1073.650635,241.346146 
	C1082.581909,250.491638 1092.571655,257.771820 1103.391113,263.659882 
	C1123.906006,274.824219 1142.931030,287.717377 1160.249268,303.630066 
	C1179.414673,321.240021 1181.843506,330.682800 1168.382812,353.228699 
	C1163.012695,362.223206 1157.857910,371.300598 1154.586182,381.309113 
	C1154.238403,382.373108 1154.154053,383.548645 1154.103638,384.679413 
	C1153.973633,387.586639 1154.968262,390.838837 1150.989258,392.868683 
	C1158.344971,392.662872 1165.200684,393.877014 1171.768799,389.947327 
	C1175.681274,387.606537 1180.449097,386.650421 1184.892334,385.264099 
	C1186.710693,384.696716 1188.300415,385.301941 1188.333984,387.605927 
	C1188.371826,390.194763 1188.217773,392.760345 1184.784790,393.171783 
	C1180.159790,393.726074 1175.531128,394.249664 1170.909058,394.826691 
	C1168.072754,395.180756 1165.399902,396.125061 1162.841187,397.360107 
	C1156.229980,400.551117 1152.781128,406.801697 1153.913330,414.066620 
	C1154.192017,415.854218 1153.537231,417.235931 1153.326294,418.809509 
	C1152.687256,423.576416 1148.450073,426.571381 1147.916626,431.566193 
	C1147.388062,436.515808 1143.471313,440.373901 1141.191650,444.790253 
	C1140.300903,446.515808 1139.380371,447.920197 1141.624756,449.397491 
	C1147.852051,453.496460 1148.344971,460.095612 1148.643311,466.590881 
	C1149.550903,486.338104 1143.699829,504.225311 1133.118286,520.668579 
	C1129.706909,525.969849 1125.816650,530.964111 1122.110229,536.073303 
	C1121.439331,536.998108 1120.746338,538.291077 1119.809692,538.574585 
	C1114.795044,540.091919 1109.433472,540.293335 1106.234741,545.881714 
	C1104.977051,548.078979 1100.950317,546.146729 1100.769531,544.066956 
	C1100.283936,538.477295 1097.269409,539.729675 1093.990967,540.667786 
	C1093.686768,540.754883 1093.304565,540.745056 1093.010132,540.638184 
	C1092.746338,540.542480 1092.553589,540.250854 1092.305176,540.023438 
	C1100.476440,541.824402 1103.040894,535.214539 1106.661377,530.393066 
	C1116.385254,517.443970 1124.535034,503.736389 1127.638672,487.489471 
	C1129.561523,477.424591 1129.644653,467.402100 1128.084717,457.339172 
	C1127.592651,454.165283 1124.910400,452.318451 1122.784912,450.306580 
	C1120.830200,448.456146 1120.767456,446.959412 1122.016968,444.687439 
	C1126.558716,436.429321 1131.370117,428.268005 1133.260620,418.844513 
	C1133.937988,415.467804 1137.247314,415.183350 1139.544678,413.701080 
	C1133.860352,408.610535 1134.697388,406.219391 1146.219116,394.525299 
	C1146.023682,393.388336 1144.975586,393.354431 1144.346924,393.589752 
	C1138.792358,395.669159 1137.755249,391.974457 1137.071167,387.937531 
	C1136.020630,381.737427 1137.712646,375.952759 1140.526245,370.596130 
	C1145.013428,362.052856 1150.087280,353.817261 1154.557007,345.265442 
	C1161.792114,331.422974 1160.139771,319.968781 1148.378296,309.779602 
	C1131.485962,295.145386 1115.655273,279.079010 1094.776978,269.586487 
	C1084.624023,264.970276 1075.526611,258.330963 1066.650391,251.557449 
	C1052.879028,241.048431 1041.883057,228.318466 1036.212769,211.646362 
	C1033.987183,205.102722 1029.231323,200.791534 1024.064209,196.841431 
	C1016.262024,190.876968 1008.145203,185.321213 1000.396423,179.290588 
	C993.176697,173.671677 993.483643,171.840271 1001.947510,167.989502 
	C1010.040588,164.307434 1018.931885,163.317413 1027.373047,160.793304 
	C1032.520264,159.254135 1037.424683,157.260605 1041.275269,153.288300 
	C1043.503784,150.989456 1044.592529,148.722122 1043.389893,145.259613 
	C1041.252441,139.106155 1039.843262,132.763153 1042.171753,126.215813 
	C1042.895264,124.181625 1041.752319,122.300453 1040.947144,120.483742 
	C1037.114014,111.834740 1031.618530,104.387909 1024.662476,97.987968 
	C1023.025146,96.481583 1020.665161,95.448494 1021.136719,92.453636 
	C1021.333252,91.205582 1020.147705,90.767296 1019.104614,91.071609 
	C1018.066589,91.374451 1017.423157,92.325363 1017.782166,93.410942 
	C1018.146851,94.513474 1019.314453,95.028221 1020.073486,94.108704 
	C1021.671509,92.172752 1025.646362,94.022636 1025.995605,89.500587 
	C1026.197266,86.888176 1029.430786,88.915527 1030.960205,89.609810 
	C1040.184814,93.797569 1046.958008,100.868980 1052.709473,108.974976 
	C1054.723511,111.813499 1056.348633,114.937073 1058.044189,117.989975 
	C1060.032715,121.570320 1060.919312,125.135529 1059.675293,129.428177 
	C1058.418335,133.765884 1059.328857,138.275192 1060.665894,142.690186 
	C1062.878296,149.995422 1061.993042,151.983627 1055.864990,156.705261 
	C1051.232666,160.274460 1045.735229,161.631836 1040.257202,163.049835 
	C1033.012573,164.925110 1025.568359,166.104706 1018.707458,169.299423 
	C1012.593933,172.146057 1012.190369,173.875610 1017.574280,178.127945 
	C1025.142456,184.105286 1033.064941,189.633789 1040.827759,195.365173 
	C1047.652832,200.404099 1052.835449,206.422577 1055.736206,214.775040 
	C1059.263794,224.932068 1065.571655,233.616806 1073.650635,241.346146 
z"/>
<path fill="#5C0DDC" opacity="1.000000" stroke="none" 
	d="
M918.923035,872.414429 
	C921.629089,862.850952 923.195435,853.486389 923.325378,843.968201 
	C923.512634,830.254822 928.839233,817.654297 931.436951,804.468994 
	C932.913513,796.974182 935.608093,790.272095 940.248962,783.745972 
	C948.826721,771.683655 949.730103,757.013611 950.574707,742.638550 
	C951.075867,734.108398 949.864441,725.681091 949.039978,717.229065 
	C948.839783,715.176453 948.105164,713.015137 949.794189,710.749756 
	C956.414673,717.029175 957.481934,725.237061 958.236206,733.212402 
	C959.868713,750.474487 955.835999,766.564758 946.770752,781.395691 
	C945.524475,783.434631 941.650635,786.154480 947.953796,787.265259 
	C950.349060,787.687378 948.984009,790.285828 948.228638,791.889404 
	C944.187561,800.468323 940.105103,809.027832 936.047852,817.599182 
	C935.336121,819.102905 934.687866,820.636536 933.989624,822.146851 
	C933.136902,823.991150 934.220886,824.811707 935.631226,825.678284 
	C937.003723,826.521606 938.129700,826.552734 939.105469,825.260254 
	C940.291260,823.689636 941.389893,822.053345 942.598999,820.342590 
	C942.987854,822.039612 942.581604,824.950134 944.764465,824.568420 
	C946.822327,824.208496 949.620483,823.681091 950.760010,821.128784 
	C955.735962,809.983276 963.081177,800.233887 969.223145,789.775879 
	C969.637695,789.070068 970.154785,788.143677 970.827759,787.912842 
	C979.428955,784.961487 979.313721,776.382568 982.269592,769.930542 
	C984.793701,764.421265 986.332275,758.461792 988.328369,752.708984 
	C992.651489,740.249512 992.288757,727.572449 991.317566,714.576843 
	C990.109619,698.412781 981.998108,685.322632 974.853394,671.671509 
	C973.629089,669.332153 971.161804,666.547302 972.720947,664.444580 
	C974.322876,662.284119 977.243713,665.061951 979.645081,665.291687 
	C989.362183,666.221741 994.411865,672.274902 998.448547,680.694031 
	C1005.791626,696.009033 1011.873352,711.464417 1011.989929,728.772705 
	C1012.099060,744.973389 1006.959717,759.597839 998.642456,773.132446 
	C990.714905,786.033081 982.172546,798.555420 973.934448,811.266052 
	C972.458008,813.544128 970.884216,814.391785 968.119934,813.098389 
	C965.977539,812.096008 964.059509,812.861938 962.944763,815.348694 
	C959.610107,822.787903 954.306763,828.688538 948.081482,833.829407 
	C947.729187,834.120300 947.461365,834.844482 947.173523,834.834045 
	C940.417603,834.588867 940.061829,839.968018 938.658142,844.433350 
	C935.450562,854.637207 931.311584,864.434753 925.561157,873.478088 
	C923.825989,876.206665 923.001648,879.232483 921.898987,882.179871 
	C921.127014,884.243164 919.854004,885.134155 917.651550,884.214172 
	C915.454102,883.296204 915.233093,881.863525 916.163635,879.805115 
	C917.190063,877.534607 917.953430,875.145203 918.923035,872.414429 
z"/>
<path fill="#5C0DDC" opacity="1.000000" stroke="none" 
	d="
M901.012207,850.198364 
	C887.981445,878.468811 876.184631,906.879395 865.217896,935.658264 
	C864.525879,935.426575 863.833923,935.194885 863.141907,934.963135 
	C862.788940,931.796997 862.308533,928.637756 862.135681,925.461792 
	C862.046631,923.825134 861.678101,922.111816 860.308105,921.666077 
	C857.000061,920.589966 854.662598,918.945618 854.229980,915.258789 
	C854.156494,914.633118 853.778259,913.992065 852.932434,914.034302 
	C851.794739,914.091187 851.862671,915.185791 851.526306,915.835571 
	C850.203186,918.391663 850.874695,921.300476 850.125977,924.062500 
	C848.882874,928.648499 847.305298,932.799805 843.058044,935.196533 
	C840.000427,936.922119 838.843811,939.644897 837.946350,942.677673 
	C835.193726,951.979980 829.924377,959.614807 822.564941,965.847839 
	C821.614258,966.653015 820.588318,968.138245 819.165894,967.039001 
	C817.825073,966.002869 818.849426,964.571472 819.251282,963.360229 
	C822.435974,953.760986 827.620667,944.999512 830.828186,935.378662 
	C832.443237,930.534241 833.214050,925.732666 833.130737,920.733398 
	C833.055481,916.214050 833.500427,911.755310 834.262024,907.319092 
	C834.471130,906.101501 834.130676,904.365295 836.074890,904.281799 
	C837.666809,904.213379 838.442993,905.547607 838.797119,906.794495 
	C839.337952,908.698853 839.808472,910.701355 839.805420,912.661438 
	C839.801941,914.930115 840.724182,916.362427 842.490356,917.329590 
	C845.700012,906.203064 848.909241,895.024963 852.172241,883.862671 
	C852.443665,882.934204 853.070801,882.107727 853.546936,881.241638 
	C854.169678,880.108887 854.576233,878.734497 856.386719,879.114380 
	C858.323975,879.520691 857.946228,881.010376 857.903259,882.276611 
	C857.691284,888.527039 856.570862,894.661682 855.311707,900.763123 
	C855.071350,901.928040 854.849976,903.003052 855.100342,904.156372 
	C858.241455,905.055054 860.411804,903.249207 861.097900,900.786621 
	C865.722107,884.189148 875.213684,869.664062 880.936157,853.544617 
	C884.003540,844.904053 885.607361,836.108154 886.160095,826.914551 
	C886.824707,815.862366 888.791931,804.918457 892.132080,794.275879 
	C893.071899,791.281494 893.370850,788.089844 894.235901,785.066467 
	C894.618286,783.729736 894.530090,781.527649 896.238220,781.367554 
	C898.192749,781.184570 898.714539,783.213074 899.113770,784.811401 
	C900.801392,791.568054 902.724426,798.282471 904.033569,805.113464 
	C906.512512,818.048706 906.743713,831.197021 907.050171,844.319885 
	C907.080078,845.600464 907.570068,847.383850 906.131775,847.953979 
	C904.049133,848.779480 904.657104,845.760864 903.177185,845.397461 
	C901.905457,846.593079 901.591919,848.254456 901.012207,850.198364 
z"/>
<path fill="#5C0DDC" opacity="1.000000" stroke="none" 
	d="
M760.180298,1015.968140 
	C760.648071,1013.179993 760.640442,1010.922363 760.427551,1008.573181 
	C758.922546,991.961487 761.942444,976.411743 771.717407,962.547607 
	C772.483215,961.461365 773.245667,960.351257 774.161194,959.397705 
	C775.159119,958.358154 776.167969,956.661072 777.824585,957.391724 
	C779.750427,958.241211 778.932800,960.254150 778.929565,961.856262 
	C778.926697,963.257263 777.064880,965.004456 778.740173,965.917969 
	C780.474365,966.863647 781.614014,964.769531 782.764465,963.685364 
	C789.397217,957.434204 794.331177,949.963440 798.195068,941.762451 
	C799.429932,939.141235 800.503113,936.843872 804.151306,936.697754 
	C807.080383,936.580322 807.769714,933.610901 808.458557,931.210693 
	C809.376221,928.013123 810.132996,924.769836 810.998413,921.556885 
	C811.613892,919.272278 812.425232,916.870422 814.421082,915.607788 
	C817.306396,913.782654 821.002197,913.036255 820.748779,908.358521 
	C820.694214,907.351440 822.399109,906.922791 823.668640,907.047791 
	C824.683044,907.147644 825.556152,907.216858 825.871277,908.531555 
	C828.119385,917.909363 825.904541,926.699524 822.475525,935.408875 
	C825.252075,930.997498 820.049866,927.785706 820.722107,923.599121 
	C814.256897,934.112427 811.191589,946.099548 805.614624,956.946106 
	C803.912109,960.257324 802.128113,963.372864 799.273071,965.782410 
	C798.277893,966.622314 797.237183,967.915222 795.835571,967.316772 
	C794.071777,966.563660 794.714966,964.832397 794.779846,963.359192 
	C794.846741,961.840515 796.529114,959.731628 794.460632,958.947083 
	C792.742554,958.295471 791.836365,960.566711 790.841919,961.824463 
	C780.451660,974.964600 777.628479,990.227173 778.511047,1006.466614 
	C778.854858,1012.793579 780.121582,1018.990845 781.640686,1025.145630 
	C782.161011,1027.253906 783.144104,1029.460205 780.425476,1031.381958 
	C779.141602,1032.289429 779.540833,1034.724976 779.878418,1036.581177 
	C780.177979,1038.228516 780.335571,1040.244141 778.251465,1040.773560 
	C774.171692,1041.809937 774.260803,1044.448975 774.966858,1047.697632 
	C775.332214,1049.378784 776.316284,1051.764282 774.289856,1052.637695 
	C772.704590,1053.321045 771.476379,1051.200073 770.444763,1049.978271 
	C769.059692,1048.337769 767.727417,1046.584839 766.738953,1044.688965 
	C762.136108,1035.861206 758.570251,1026.756714 760.180298,1015.968140 
z"/>
<path fill="#5C0DDC" opacity="1.000000" stroke="none" 
	d="
M1025.648560,616.861572 
	C1019.790894,629.063965 1012.500916,639.645325 1001.386658,647.138245 
	C998.350037,649.185364 997.282654,650.728638 1001.632690,652.756714 
	C1007.200989,655.352661 1012.423279,658.650085 1017.441711,662.238220 
	C1020.803650,664.642029 1019.967224,666.400208 1016.748840,667.957825 
	C1011.345703,670.572571 1004.636047,668.469849 1000.261719,664.056580 
	C995.692688,659.446716 989.707886,656.591553 983.926270,653.629395 
	C978.037537,650.612427 978.035583,650.406677 983.480652,646.505798 
	C998.947510,635.425171 1007.379883,619.669250 1013.037781,602.057190 
	C1016.403625,591.579590 1018.441162,580.810120 1020.280151,569.989319 
	C1020.572510,568.269226 1020.194214,565.391724 1022.087891,565.287781 
	C1024.536377,565.153259 1024.334351,568.300842 1024.614014,569.967590 
	C1025.931274,577.816406 1027.543213,585.679443 1025.692017,593.724976 
	C1025.281982,595.506897 1023.471863,597.704468 1025.348145,599.266052 
	C1027.112915,600.734619 1029.031738,598.560120 1031.280762,598.284729 
	C1031.381592,605.013306 1028.158813,610.644348 1025.648560,616.861572 
z"/>
<path fill="#5C0DDC" opacity="1.000000" stroke="none" 
	d="
M1041.962402,575.498352 
	C1040.493286,572.015076 1041.977417,568.050232 1037.618408,565.699097 
	C1035.562256,564.590027 1037.225220,560.991516 1039.462769,558.932678 
	C1045.143433,553.705872 1047.714355,546.936035 1048.241577,539.384338 
	C1048.727295,532.429138 1046.236572,526.675476 1040.651489,522.363281 
	C1039.772217,521.684265 1038.241577,521.324890 1038.631836,519.866028 
	C1039.072144,518.220032 1040.722290,518.496521 1041.993896,518.393799 
	C1045.755737,518.089844 1049.301392,518.916382 1052.542114,520.819214 
	C1066.027222,528.737366 1068.892456,547.816772 1057.934814,558.883240 
	C1055.277344,561.567078 1054.974487,563.849365 1055.446289,567.216736 
	C1056.719238,576.301514 1055.859741,585.162231 1051.176636,593.319031 
	C1049.400391,596.412781 1047.065674,598.967896 1043.678467,600.371460 
	C1042.721069,600.768066 1041.757080,600.946289 1040.842896,600.242493 
	C1039.711304,599.371338 1040.470459,598.369141 1040.799561,597.549377 
	C1043.643555,590.465515 1043.247559,583.215637 1041.962402,575.498352 
z"/>
<path fill="#5C0DDC" opacity="1.000000" stroke="none" 
	d="
M984.057495,71.072731 
	C979.377747,65.079597 974.025635,60.437790 967.599731,57.054829 
	C966.485962,56.468498 964.730530,56.138893 965.188232,54.419800 
	C965.605103,52.853912 967.344238,53.080097 968.604492,52.942867 
	C980.061401,51.695301 988.780640,57.255104 996.634583,64.580513 
	C1001.897949,69.489662 1005.741699,75.443893 1009.002075,81.914345 
	C1010.781067,85.444847 1009.999939,88.596703 1009.619324,91.948631 
	C1009.413635,93.759438 1007.732788,93.520477 1006.491638,93.671280 
	C1001.025024,94.335541 993.827271,90.108238 991.720032,84.825020 
	C989.799438,80.009857 987.444275,75.469315 984.057495,71.072731 
z"/>
<path fill="#5C0DDC" opacity="1.000000" stroke="none" 
	d="
M1189.738525,436.989380 
	C1190.655396,438.479309 1192.486206,439.620972 1191.407837,441.132721 
	C1190.226685,442.788574 1188.647095,441.207916 1187.417236,440.681732 
	C1178.389771,436.819550 1169.392090,432.886444 1160.428589,428.878296 
	C1158.833008,428.164825 1156.953613,427.750946 1155.150391,424.970154 
	C1168.251221,426.145447 1180.271484,427.112671 1189.738525,436.989380 
z"/>
<path fill="#5C0DDC" opacity="1.000000" stroke="none" 
	d="
M752.831238,1016.767212 
	C749.501465,1013.711060 749.107666,1009.988403 749.154846,1006.149353 
	C749.172424,1004.720215 749.778503,1003.519714 751.350952,1003.287476 
	C752.813477,1003.071533 753.249451,1004.309753 753.820312,1005.307068 
	C755.667114,1008.533936 756.089355,1012.219666 756.576355,1015.738342 
	C756.987732,1018.710693 754.876221,1018.229553 752.831238,1016.767212 
z"/>
<path fill="#5C0DDC" opacity="1.000000" stroke="none" 
	d="
M957.632141,778.427368 
	C958.986328,775.145996 959.778687,771.875427 963.457458,770.780090 
	C965.036987,774.574707 962.824707,777.419800 961.633728,780.395020 
	C960.846313,782.362061 959.410583,785.052368 957.098877,783.961304 
	C954.771179,782.862671 956.819458,780.507751 957.632141,778.427368 
z"/>
<path fill="#5C0DDC" opacity="1.000000" stroke="none" 
	d="
M265.295654,711.375183 
	C267.129944,707.778442 270.032959,706.968628 272.822083,708.602356 
	C275.330261,710.071533 275.480286,712.908569 273.848694,715.506226 
	C272.521515,717.619263 270.347992,717.263916 268.486786,716.938354 
	C265.723907,716.454834 265.268463,714.095886 265.295654,711.375183 
z"/>
<path fill="#5C0DDC" opacity="1.000000" stroke="none" 
	d="
M760.403931,1042.399902 
	C761.376526,1045.274170 760.809143,1047.437866 758.457520,1050.037354 
	C757.721313,1046.252686 757.121277,1043.167969 756.416870,1039.546631 
	C757.874573,1040.710571 759.700989,1040.317871 760.403931,1042.399902 
z"/>
<path fill="#000000" opacity="1.000000" stroke="none" 
	d="
M859.007690,916.930420 
	C859.242004,912.020935 859.388977,907.586487 859.552979,903.152649 
	C859.688843,899.479187 864.302490,899.870056 865.145874,896.634888 
	C865.941589,900.069458 866.580566,902.749939 864.405151,906.160034 
	C862.459778,909.209595 862.791138,913.716248 862.138123,917.583435 
	C861.848145,919.300903 862.058289,922.106567 860.055176,921.933899 
	C857.592102,921.721619 859.198364,919.009644 859.007690,916.930420 
z"/>
</svg>