<svg width="248" height="60" viewBox="0 0 248 60" fill="none" xmlns="http://www.w3.org/2000/svg">
<path d="M23.3485 0.62139C17.1561 0.621391 11.2173 3.08131 6.83861 7.46C2.45992 11.8387 -8.2376e-07 17.7775 -1.02059e-06 23.9699C-1.21743e-06 30.1623 2.45992 36.1011 6.83861 40.4797C11.2173 44.8584 17.1561 47.3184 23.3485 47.3184L23.3485 38.182C19.5634 38.182 15.9333 36.738 13.2569 34.0615C10.5804 31.385 9.07678 27.755 9.07678 23.9699C9.07678 20.1848 10.5804 16.5547 13.2569 13.8783C15.9333 11.2018 19.5634 9.75775 23.3485 9.75775L23.3485 0.62139Z" fill="#0038CB"/>
<path d="M23.3484 38.1821C27.2075 38.1821 30.9084 36.6847 33.6372 34.0194C36.3659 31.3541 37.8989 27.7392 37.8989 23.9699C37.8989 20.2006 36.3659 16.5857 33.6372 13.9204C30.9084 11.2552 27.2075 9.75781 23.3484 9.75781L23.3484 18.036C24.9597 18.036 26.5049 18.6612 27.6442 19.774C28.7836 20.8868 29.4236 22.3962 29.4236 23.9699C29.4236 25.5437 28.7836 27.053 27.6442 28.1659C26.5049 29.2787 24.9597 29.9039 23.3484 29.9039L23.3484 38.1821Z" fill="#0299E6"/>
<path d="M52.4494 9.7574C48.5904 9.7574 44.8894 11.2547 42.1607 13.92C39.4319 16.5853 37.8989 20.2002 37.8989 23.9695C37.8989 27.7388 39.4319 31.3537 42.1607 34.019C44.8894 36.6843 48.5904 38.1816 52.4494 38.1816L52.4494 29.9034C50.8382 29.9034 49.2929 29.2783 48.1536 28.1654C47.0143 27.0526 46.3742 25.5433 46.3742 23.9695C46.3742 22.3957 47.0143 20.8864 48.1536 19.7736C49.2929 18.6608 50.8382 18.0356 52.4494 18.0356L52.4494 9.7574Z" fill="#0299E6"/>
<path d="M60.924 24.144C60.924 22.2027 61.344 20.476 62.184 18.964C63.024 17.4333 64.1907 16.248 65.684 15.408C67.196 14.5493 68.904 14.12 70.808 14.12C73.1413 14.12 75.1387 14.736 76.8 15.968C78.4613 17.2 79.572 18.88 80.132 21.008H74.868C74.476 20.1867 73.916 19.5613 73.188 19.132C72.4787 18.7027 71.6667 18.488 70.752 18.488C69.2773 18.488 68.0827 19.0013 67.168 20.028C66.2533 21.0547 65.796 22.4267 65.796 24.144C65.796 25.8613 66.2533 27.2333 67.168 28.26C68.0827 29.2867 69.2773 29.8 70.752 29.8C71.6667 29.8 72.4787 29.5853 73.188 29.156C73.916 28.7267 74.476 28.1013 74.868 27.28H80.132C79.572 29.408 78.4613 31.088 76.8 32.32C75.1387 33.5333 73.1413 34.14 70.808 34.14C68.904 34.14 67.196 33.72 65.684 32.88C64.1907 32.0213 63.024 30.836 62.184 29.324C61.344 27.812 60.924 26.0853 60.924 24.144ZM99.0241 18.376L89.2241 41.42H84.0721L87.6561 33.468L81.3001 18.376H86.6481L90.2601 28.148L93.8441 18.376H99.0241ZM105.544 20.588C105.992 19.86 106.636 19.272 107.476 18.824C108.316 18.376 109.277 18.152 110.36 18.152C111.648 18.152 112.814 18.4787 113.86 19.132C114.905 19.7853 115.726 20.7187 116.324 21.932C116.94 23.1453 117.248 24.5547 117.248 26.16C117.248 27.7653 116.94 29.184 116.324 30.416C115.726 31.6293 114.905 32.572 113.86 33.244C112.814 33.8973 111.648 34.224 110.36 34.224C109.258 34.224 108.297 34.0093 107.476 33.58C106.654 33.132 106.01 32.544 105.544 31.816V34H100.756V13.28H105.544V20.588ZM112.376 26.16C112.376 24.9653 112.04 24.032 111.368 23.36C110.714 22.6693 109.902 22.324 108.932 22.324C107.98 22.324 107.168 22.6693 106.496 23.36C105.842 24.0507 105.516 24.9933 105.516 26.188C105.516 27.3827 105.842 28.3253 106.496 29.016C107.168 29.7067 107.98 30.052 108.932 30.052C109.884 30.052 110.696 29.7067 111.368 29.016C112.04 28.3067 112.376 27.3547 112.376 26.16ZM134.487 25.936C134.487 26.384 134.459 26.8507 134.403 27.336H123.567C123.642 28.3067 123.95 29.0533 124.491 29.576C125.051 30.08 125.733 30.332 126.535 30.332C127.73 30.332 128.561 29.828 129.027 28.82H134.123C133.862 29.8467 133.386 30.7707 132.695 31.592C132.023 32.4133 131.174 33.0573 130.147 33.524C129.121 33.9907 127.973 34.224 126.703 34.224C125.173 34.224 123.81 33.8973 122.615 33.244C121.421 32.5907 120.487 31.6573 119.815 30.444C119.143 29.2307 118.807 27.812 118.807 26.188C118.807 24.564 119.134 23.1453 119.787 21.932C120.459 20.7187 121.393 19.7853 122.587 19.132C123.782 18.4787 125.154 18.152 126.703 18.152C128.215 18.152 129.559 18.4693 130.735 19.104C131.911 19.7387 132.826 20.644 133.479 21.82C134.151 22.996 134.487 24.368 134.487 25.936ZM129.587 24.676C129.587 23.8547 129.307 23.2013 128.747 22.716C128.187 22.2307 127.487 21.988 126.647 21.988C125.845 21.988 125.163 22.2213 124.603 22.688C124.062 23.1547 123.726 23.8173 123.595 24.676H129.587ZM141.801 20.98C142.361 20.1213 143.061 19.4493 143.901 18.964C144.741 18.46 145.675 18.208 146.701 18.208V23.276H145.385C144.191 23.276 143.295 23.5373 142.697 24.06C142.1 24.564 141.801 25.46 141.801 26.748V34H137.013V18.376H141.801V20.98ZM161.03 34L157.026 27.98L153.498 34H148.066L154.366 24.004L147.926 14.344H153.498L157.446 20.28L160.918 14.344H166.35L160.106 24.256L166.602 34H161.03ZM173.794 20.588C174.26 19.86 174.904 19.272 175.726 18.824C176.547 18.376 177.508 18.152 178.61 18.152C179.898 18.152 181.064 18.4787 182.11 19.132C183.155 19.7853 183.976 20.7187 184.574 21.932C185.19 23.1453 185.498 24.5547 185.498 26.16C185.498 27.7653 185.19 29.184 184.574 30.416C183.976 31.6293 183.155 32.572 182.11 33.244C181.064 33.8973 179.898 34.224 178.61 34.224C177.527 34.224 176.566 34 175.726 33.552C174.904 33.104 174.26 32.5253 173.794 31.816V41.448H169.006V18.376H173.794V20.588ZM180.626 26.16C180.626 24.9653 180.29 24.032 179.618 23.36C178.964 22.6693 178.152 22.324 177.182 22.324C176.23 22.324 175.418 22.6693 174.746 23.36C174.092 24.0507 173.766 24.9933 173.766 26.188C173.766 27.3827 174.092 28.3253 174.746 29.016C175.418 29.7067 176.23 30.052 177.182 30.052C178.134 30.052 178.946 29.7067 179.618 29.016C180.29 28.3067 180.626 27.3547 180.626 26.16ZM192.797 13.28V34H188.009V13.28H192.797ZM203.379 34.224C201.849 34.224 200.467 33.8973 199.235 33.244C198.022 32.5907 197.061 31.6573 196.351 30.444C195.661 29.2307 195.315 27.812 195.315 26.188C195.315 24.5827 195.67 23.1733 196.379 21.96C197.089 20.728 198.059 19.7853 199.291 19.132C200.523 18.4787 201.905 18.152 203.435 18.152C204.966 18.152 206.347 18.4787 207.579 19.132C208.811 19.7853 209.782 20.728 210.491 21.96C211.201 23.1733 211.555 24.5827 211.555 26.188C211.555 27.7933 211.191 29.212 210.463 30.444C209.754 31.6573 208.774 32.5907 207.523 33.244C206.291 33.8973 204.91 34.224 203.379 34.224ZM203.379 30.08C204.294 30.08 205.069 29.744 205.703 29.072C206.357 28.4 206.683 27.4387 206.683 26.188C206.683 24.9373 206.366 23.976 205.731 23.304C205.115 22.632 204.35 22.296 203.435 22.296C202.502 22.296 201.727 22.632 201.111 23.304C200.495 23.9573 200.187 24.9187 200.187 26.188C200.187 27.4387 200.486 28.4 201.083 29.072C201.699 29.744 202.465 30.08 203.379 30.08ZM216.503 16.752C215.663 16.752 214.973 16.5093 214.431 16.024C213.909 15.52 213.647 14.904 213.647 14.176C213.647 13.4293 213.909 12.8133 214.431 12.328C214.973 11.824 215.663 11.572 216.503 11.572C217.325 11.572 217.997 11.824 218.519 12.328C219.061 12.8133 219.331 13.4293 219.331 14.176C219.331 14.904 219.061 15.52 218.519 16.024C217.997 16.5093 217.325 16.752 216.503 16.752ZM218.883 18.376V34H214.095V18.376H218.883ZM231.061 29.94V34H228.625C226.889 34 225.536 33.58 224.565 32.74C223.595 31.8813 223.109 30.4907 223.109 28.568V22.352H221.205V18.376H223.109V14.568H227.897V18.376H231.033V22.352H227.897V28.624C227.897 29.0907 228.009 29.4267 228.233 29.632C228.457 29.8373 228.831 29.94 229.353 29.94H231.061ZM240.084 34.224C238.722 34.224 237.508 33.9907 236.444 33.524C235.38 33.0573 234.54 32.4227 233.924 31.62C233.308 30.7987 232.963 29.884 232.888 28.876H237.62C237.676 29.4173 237.928 29.856 238.376 30.192C238.824 30.528 239.375 30.696 240.028 30.696C240.626 30.696 241.083 30.584 241.4 30.36C241.736 30.1173 241.904 29.8093 241.904 29.436C241.904 28.988 241.671 28.6613 241.204 28.456C240.738 28.232 239.982 27.9893 238.936 27.728C237.816 27.4667 236.883 27.196 236.136 26.916C235.39 26.6173 234.746 26.16 234.204 25.544C233.663 24.9093 233.392 24.06 233.392 22.996C233.392 22.1 233.635 21.288 234.12 20.56C234.624 19.8133 235.352 19.2253 236.304 18.796C237.275 18.3667 238.423 18.152 239.748 18.152C241.708 18.152 243.248 18.6373 244.368 19.608C245.507 20.5787 246.16 21.8667 246.328 23.472H241.904C241.83 22.9307 241.587 22.5013 241.176 22.184C240.784 21.8667 240.262 21.708 239.608 21.708C239.048 21.708 238.619 21.82 238.32 22.044C238.022 22.2493 237.872 22.5387 237.872 22.912C237.872 23.36 238.106 23.696 238.572 23.92C239.058 24.144 239.804 24.368 240.812 24.592C241.97 24.8907 242.912 25.1893 243.64 25.488C244.368 25.768 245.003 26.2347 245.544 26.888C246.104 27.5227 246.394 28.3813 246.412 29.464C246.412 30.3787 246.151 31.2 245.628 31.928C245.124 32.6373 244.387 33.1973 243.416 33.608C242.464 34.0187 241.354 34.224 240.084 34.224Z" fill="#001E6A"/>
<path d="M157.648 55.084C157.088 55.084 156.584 54.988 156.136 54.796C155.688 54.596 155.336 54.316 155.08 53.956C154.824 53.596 154.696 53.176 154.696 52.696H156.16C156.192 53.056 156.332 53.352 156.58 53.584C156.836 53.816 157.192 53.932 157.648 53.932C158.12 53.932 158.488 53.82 158.752 53.596C159.016 53.364 159.148 53.068 159.148 52.708C159.148 52.428 159.064 52.2 158.896 52.024C158.736 51.848 158.532 51.712 158.284 51.616C158.044 51.52 157.708 51.416 157.276 51.304C156.732 51.16 156.288 51.016 155.944 50.872C155.608 50.72 155.32 50.488 155.08 50.176C154.84 49.864 154.72 49.448 154.72 48.928C154.72 48.448 154.84 48.028 155.08 47.668C155.32 47.308 155.656 47.032 156.088 46.84C156.52 46.648 157.02 46.552 157.588 46.552C158.396 46.552 159.056 46.756 159.568 47.164C160.088 47.564 160.376 48.116 160.432 48.82H158.92C158.896 48.516 158.752 48.256 158.488 48.04C158.224 47.824 157.876 47.716 157.444 47.716C157.052 47.716 156.732 47.816 156.484 48.016C156.236 48.216 156.112 48.504 156.112 48.88C156.112 49.136 156.188 49.348 156.34 49.516C156.5 49.676 156.7 49.804 156.94 49.9C157.18 49.996 157.508 50.1 157.924 50.212C158.476 50.364 158.924 50.516 159.268 50.668C159.62 50.82 159.916 51.056 160.156 51.376C160.404 51.688 160.528 52.108 160.528 52.636C160.528 53.06 160.412 53.46 160.18 53.836C159.956 54.212 159.624 54.516 159.184 54.748C158.752 54.972 158.24 55.084 157.648 55.084ZM168.202 51.532C168.202 51.78 168.186 52.004 168.154 52.204H163.102C163.142 52.732 163.338 53.156 163.69 53.476C164.042 53.796 164.474 53.956 164.986 53.956C165.722 53.956 166.242 53.648 166.546 53.032H168.022C167.822 53.64 167.458 54.14 166.93 54.532C166.41 54.916 165.762 55.108 164.986 55.108C164.354 55.108 163.786 54.968 163.282 54.688C162.786 54.4 162.394 54 162.106 53.488C161.826 52.968 161.686 52.368 161.686 51.688C161.686 51.008 161.822 50.412 162.094 49.9C162.374 49.38 162.762 48.98 163.258 48.7C163.762 48.42 164.338 48.28 164.986 48.28C165.61 48.28 166.166 48.416 166.654 48.688C167.142 48.96 167.522 49.344 167.794 49.84C168.066 50.328 168.202 50.892 168.202 51.532ZM166.774 51.1C166.766 50.596 166.586 50.192 166.234 49.888C165.882 49.584 165.446 49.432 164.926 49.432C164.454 49.432 164.05 49.584 163.714 49.888C163.378 50.184 163.178 50.588 163.114 51.1H166.774ZM169.092 51.688C169.092 51.008 169.228 50.412 169.5 49.9C169.78 49.38 170.164 48.98 170.652 48.7C171.14 48.42 171.7 48.28 172.332 48.28C173.132 48.28 173.792 48.472 174.312 48.856C174.84 49.232 175.196 49.772 175.38 50.476H173.904C173.784 50.148 173.592 49.892 173.328 49.708C173.064 49.524 172.732 49.432 172.332 49.432C171.772 49.432 171.324 49.632 170.988 50.032C170.66 50.424 170.496 50.976 170.496 51.688C170.496 52.4 170.66 52.956 170.988 53.356C171.324 53.756 171.772 53.956 172.332 53.956C173.124 53.956 173.648 53.608 173.904 52.912H175.38C175.188 53.584 174.828 54.12 174.3 54.52C173.772 54.912 173.116 55.108 172.332 55.108C171.7 55.108 171.14 54.968 170.652 54.688C170.164 54.4 169.78 54 169.5 53.488C169.228 52.968 169.092 52.368 169.092 51.688ZM182.732 48.388V55H181.364V54.22C181.148 54.492 180.864 54.708 180.512 54.868C180.168 55.02 179.8 55.096 179.408 55.096C178.888 55.096 178.42 54.988 178.004 54.772C177.596 54.556 177.272 54.236 177.032 53.812C176.8 53.388 176.684 52.876 176.684 52.276V48.388H178.04V52.072C178.04 52.664 178.188 53.12 178.484 53.44C178.78 53.752 179.184 53.908 179.696 53.908C180.208 53.908 180.612 53.752 180.908 53.44C181.212 53.12 181.364 52.664 181.364 52.072V48.388H182.732ZM185.905 49.348C186.105 49.012 186.369 48.752 186.697 48.568C187.033 48.376 187.429 48.28 187.885 48.28V49.696H187.537C187.001 49.696 186.593 49.832 186.313 50.104C186.041 50.376 185.905 50.848 185.905 51.52V55H184.537V48.388H185.905V49.348ZM195.202 51.532C195.202 51.78 195.186 52.004 195.154 52.204H190.102C190.142 52.732 190.338 53.156 190.69 53.476C191.042 53.796 191.474 53.956 191.986 53.956C192.722 53.956 193.242 53.648 193.546 53.032H195.022C194.822 53.64 194.458 54.14 193.93 54.532C193.41 54.916 192.762 55.108 191.986 55.108C191.354 55.108 190.786 54.968 190.282 54.688C189.786 54.4 189.394 54 189.106 53.488C188.826 52.968 188.686 52.368 188.686 51.688C188.686 51.008 188.822 50.412 189.094 49.9C189.374 49.38 189.762 48.98 190.258 48.7C190.762 48.42 191.338 48.28 191.986 48.28C192.61 48.28 193.166 48.416 193.654 48.688C194.142 48.96 194.522 49.344 194.794 49.84C195.066 50.328 195.202 50.892 195.202 51.532ZM193.774 51.1C193.766 50.596 193.586 50.192 193.234 49.888C192.882 49.584 192.446 49.432 191.926 49.432C191.454 49.432 191.05 49.584 190.714 49.888C190.378 50.184 190.178 50.588 190.114 51.1H193.774ZM205.618 48.388L201.562 58.108H200.146L201.49 54.892L198.886 48.388H200.41L202.27 53.428L204.202 48.388H205.618ZM209.518 55.108C208.894 55.108 208.33 54.968 207.826 54.688C207.322 54.4 206.926 54 206.638 53.488C206.35 52.968 206.206 52.368 206.206 51.688C206.206 51.016 206.354 50.42 206.65 49.9C206.946 49.38 207.35 48.98 207.862 48.7C208.374 48.42 208.946 48.28 209.578 48.28C210.21 48.28 210.782 48.42 211.294 48.7C211.806 48.98 212.21 49.38 212.506 49.9C212.802 50.42 212.95 51.016 212.95 51.688C212.95 52.36 212.798 52.956 212.494 53.476C212.19 53.996 211.774 54.4 211.246 54.688C210.726 54.968 210.15 55.108 209.518 55.108ZM209.518 53.92C209.87 53.92 210.198 53.836 210.502 53.668C210.814 53.5 211.066 53.248 211.258 52.912C211.45 52.576 211.546 52.168 211.546 51.688C211.546 51.208 211.454 50.804 211.27 50.476C211.086 50.14 210.842 49.888 210.538 49.72C210.234 49.552 209.906 49.468 209.554 49.468C209.202 49.468 208.874 49.552 208.57 49.72C208.274 49.888 208.038 50.14 207.862 50.476C207.686 50.804 207.598 51.208 207.598 51.688C207.598 52.4 207.778 52.952 208.138 53.344C208.506 53.728 208.966 53.92 209.518 53.92ZM220.29 48.388V55H218.922V54.22C218.706 54.492 218.422 54.708 218.07 54.868C217.726 55.02 217.358 55.096 216.966 55.096C216.446 55.096 215.978 54.988 215.562 54.772C215.154 54.556 214.83 54.236 214.59 53.812C214.358 53.388 214.242 52.876 214.242 52.276V48.388H215.598V52.072C215.598 52.664 215.746 53.12 216.042 53.44C216.338 53.752 216.742 53.908 217.254 53.908C217.766 53.908 218.17 53.752 218.466 53.44C218.77 53.12 218.922 52.664 218.922 52.072V48.388H220.29ZM223.463 49.348C223.663 49.012 223.927 48.752 224.255 48.568C224.591 48.376 224.987 48.28 225.443 48.28V49.696H225.095C224.559 49.696 224.151 49.832 223.871 50.104C223.599 50.376 223.463 50.848 223.463 51.52V55H222.095V48.388H223.463V49.348ZM229.101 55.108C228.581 55.108 228.113 55.016 227.697 54.832C227.289 54.64 226.965 54.384 226.725 54.064C226.485 53.736 226.357 53.372 226.341 52.972H227.757C227.781 53.252 227.913 53.488 228.153 53.68C228.401 53.864 228.709 53.956 229.077 53.956C229.461 53.956 229.757 53.884 229.965 53.74C230.181 53.588 230.289 53.396 230.289 53.164C230.289 52.916 230.169 52.732 229.929 52.612C229.697 52.492 229.325 52.36 228.813 52.216C228.317 52.08 227.913 51.948 227.601 51.82C227.289 51.692 227.017 51.496 226.785 51.232C226.561 50.968 226.449 50.62 226.449 50.188C226.449 49.836 226.553 49.516 226.761 49.228C226.969 48.932 227.265 48.7 227.649 48.532C228.041 48.364 228.489 48.28 228.993 48.28C229.745 48.28 230.349 48.472 230.805 48.856C231.269 49.232 231.517 49.748 231.549 50.404H230.181C230.157 50.108 230.037 49.872 229.821 49.696C229.605 49.52 229.313 49.432 228.945 49.432C228.585 49.432 228.309 49.5 228.117 49.636C227.925 49.772 227.829 49.952 227.829 50.176C227.829 50.352 227.893 50.5 228.021 50.62C228.149 50.74 228.305 50.836 228.489 50.908C228.673 50.972 228.945 51.056 229.305 51.16C229.785 51.288 230.177 51.42 230.481 51.556C230.793 51.684 231.061 51.876 231.285 52.132C231.509 52.388 231.625 52.728 231.633 53.152C231.633 53.528 231.529 53.864 231.321 54.16C231.113 54.456 230.817 54.688 230.433 54.856C230.057 55.024 229.613 55.108 229.101 55.108ZM239.171 51.532C239.171 51.78 239.155 52.004 239.123 52.204H234.071C234.111 52.732 234.307 53.156 234.659 53.476C235.011 53.796 235.443 53.956 235.955 53.956C236.691 53.956 237.211 53.648 237.515 53.032H238.991C238.791 53.64 238.427 54.14 237.899 54.532C237.379 54.916 236.731 55.108 235.955 55.108C235.323 55.108 234.755 54.968 234.251 54.688C233.755 54.4 233.363 54 233.075 53.488C232.795 52.968 232.655 52.368 232.655 51.688C232.655 51.008 232.791 50.412 233.063 49.9C233.343 49.38 233.731 48.98 234.227 48.7C234.731 48.42 235.307 48.28 235.955 48.28C236.579 48.28 237.135 48.416 237.623 48.688C238.111 48.96 238.491 49.344 238.763 49.84C239.035 50.328 239.171 50.892 239.171 51.532ZM237.743 51.1C237.735 50.596 237.555 50.192 237.203 49.888C236.851 49.584 236.415 49.432 235.895 49.432C235.423 49.432 235.019 49.584 234.683 49.888C234.347 50.184 234.147 50.588 234.083 51.1H237.743ZM241.885 46.12V55H240.517V46.12H241.885ZM246.453 49.504H245.229V55H243.849V49.504H243.069V48.388H243.849V47.92C243.849 47.16 244.049 46.608 244.449 46.264C244.857 45.912 245.493 45.736 246.357 45.736V46.876C245.941 46.876 245.649 46.956 245.481 47.116C245.313 47.268 245.229 47.536 245.229 47.92V48.388H246.453V49.504Z" fill="#001E6A"/>
</svg>
