<svg width="198" height="138" viewBox="0 0 198 138" fill="none" xmlns="http://www.w3.org/2000/svg">
<path d="M69 -3.01609e-06C50.7001 -2.21617e-06 33.1496 7.26962 20.2096 20.2096C7.26962 33.1496 -2.43439e-06 50.7001 -3.01609e-06 69C-3.59778e-06 87.2999 7.26962 104.85 20.2096 117.79C33.1496 130.73 50.7001 138 69 138L69 111C57.8142 111 47.0866 106.733 39.177 98.823C31.2675 90.9134 26.8239 80.1858 26.8239 69C26.8239 57.8142 31.2675 47.0866 39.177 39.177C47.0866 31.2675 57.8142 27 69 27L69 -3.01609e-06Z" fill="#002993"/>
<path d="M69 111C80.4043 111 91.3415 106.575 99.4056 98.6985C107.47 90.822 112 80.1391 112 69C112 57.8609 107.47 47.178 99.4056 39.3015C91.3415 31.425 80.4043 27 69 27L69 51.4639C73.7616 51.4639 78.3282 53.3115 81.6951 56.6001C85.0621 59.8888 86.9536 64.3491 86.9536 69C86.9536 73.6509 85.0621 78.1112 81.6951 81.3999C78.3282 84.6885 73.7616 86.5361 69 86.5361L69 111Z" fill="#4285F4"/>
<path d="M155 27C143.596 27 132.658 31.425 124.594 39.3015C116.53 47.178 112 57.8609 112 69C112 80.1391 116.53 90.822 124.594 98.6985C132.658 106.575 143.596 111 155 111L155 86.5361C150.238 86.5361 145.672 84.6885 142.305 81.3999C138.938 78.1112 137.046 73.6509 137.046 69C137.046 64.3491 138.938 59.8888 142.305 56.6001C145.672 53.3115 150.238 51.4639 155 51.4639L155 27Z" fill="#4285F4"/>
</svg>
