<svg width="87" height="62" viewBox="0 0 87 62" fill="none" xmlns="http://www.w3.org/2000/svg">
<path d="M30.3182 0.68199C22.2773 0.681991 14.5658 3.87622 8.87999 9.56198C3.19423 15.2477 -1.06966e-06 22.9593 -1.32525e-06 31.0002C-1.58084e-06 39.0411 3.19423 46.7526 8.87999 52.4384C14.5657 58.1241 22.2773 61.3184 30.3182 61.3184L30.3182 49.4547C25.4032 49.4547 20.6895 47.5796 17.2141 44.1042C13.7387 40.6288 11.7863 35.9151 11.7863 31.0002C11.7863 26.0852 13.7387 21.3715 17.2141 17.8961C20.6895 14.4207 25.4032 12.5456 30.3182 12.5456L30.3182 0.68199Z" fill="white"/>
<path d="M30.3185 49.454C35.3294 49.454 40.1352 47.5097 43.6785 44.0488C47.2218 40.5879 49.2124 35.8939 49.2124 30.9995C49.2124 26.105 47.2218 21.411 43.6785 17.9501C40.1352 14.4892 35.3295 12.5449 30.3185 12.5449L30.3185 23.2942C32.4107 23.2942 34.4172 24.106 35.8966 25.551C37.376 26.9961 38.2072 28.9559 38.2072 30.9995C38.2072 33.043 37.376 35.0029 35.8966 36.4479C34.4172 37.8929 32.4107 38.7047 30.3185 38.7047L30.3185 49.454Z" fill="white"/>
<path d="M68.1063 12.546C63.0954 12.546 58.2896 14.4903 54.7463 17.9512C51.203 21.4121 49.2124 26.1061 49.2124 31.0005C49.2124 35.895 51.203 40.589 54.7463 44.0499C58.2896 47.5108 63.0954 49.4551 68.1063 49.4551L68.1063 38.7058C66.0141 38.7058 64.0076 37.894 62.5282 36.449C61.0488 35.0039 60.2176 33.0441 60.2176 31.0005C60.2176 28.957 61.0488 26.9971 62.5282 25.5521C64.0076 24.1071 66.0141 23.2953 68.1063 23.2953L68.1063 12.546Z" fill="white"/>
</svg>
